<svg width="1039" height="1001" viewBox="0 0 1039 1001" fill="none" xmlns="http://www.w3.org/2000/svg">
<path d="M825.335 500.947H547.618C522.34 500.947 502.948 519.299 501.216 543.884L492.213 688.62C492.213 688.62 492.213 690.005 492.213 690.698C488.404 757.18 427.805 750.601 427.805 750.601H150.434C125.156 750.601 105.764 768.953 104.032 793.537L95.0291 940.698C92.9514 972.207 120.308 1000.6 152.165 1000.6H355.086C423.303 1000.6 476.631 951.085 480.786 883.911L485.288 810.504C485.288 810.504 485.288 810.157 485.288 809.811C488.75 752.332 543.809 750.255 548.657 750.255C549.003 750.255 549.35 750.255 549.696 750.255H827.413C852.692 750.255 872.083 731.903 873.815 707.318L882.818 560.158C884.896 528.648 857.193 500.947 825.335 500.947Z" fill="#030904"/>
<path d="M981.163 0.600586H578.439C553.16 0.600586 533.768 18.9524 532.037 43.5369L523.034 190.697C519.225 257.179 458.625 250.6 458.625 250.6H55.9008C30.6223 250.6 11.2306 268.952 9.49918 293.537L0.495882 440.697C-1.5818 472.207 25.7744 500.6 57.6322 500.6H460.357C485.635 500.6 505.027 482.248 506.759 457.664L515.762 310.503C519.225 249.908 580.17 250.6 580.17 250.6H982.895C1008.17 250.6 1027.56 232.249 1029.3 207.664L1038.3 60.5037C1040.38 28.994 1013.02 0.600586 981.163 0.600586Z" fill="#030904"/>
</svg>
