<svg width="1039" height="1001" viewBox="0 0 1039 1001" fill="none" xmlns="http://www.w3.org/2000/svg">
<path d="M825.378 501.177H547.66C522.381 501.177 502.99 519.529 501.258 544.113L492.255 688.85C492.255 688.85 492.255 690.235 492.255 690.928C488.446 757.41 427.846 750.831 427.846 750.831H150.129C124.85 750.831 105.458 769.183 103.727 793.767L94.7234 940.928C92.6457 972.438 120.002 1000.83 151.86 1000.83H354.781C422.999 1000.83 476.326 951.316 480.481 884.141L484.983 810.734C484.983 810.734 484.983 810.388 484.983 810.042C488.446 752.562 543.505 750.485 548.353 750.485C548.699 750.485 549.045 750.485 549.391 750.485H827.109C852.388 750.485 871.78 732.133 873.511 707.549L882.514 560.388C884.592 528.878 857.236 501.177 825.378 501.177Z" fill="#F0EEEB"/>
<path d="M981.198 0.831055H578.472C553.194 0.831055 533.802 19.1831 532.071 43.7676L523.067 190.928C519.258 257.411 458.659 250.831 458.659 250.831H55.9332C30.6546 250.831 11.2628 269.184 9.53143 293.768L0.528109 440.929C-1.54958 472.439 25.8067 500.832 57.6646 500.832H460.39C485.669 500.832 505.061 482.48 506.792 457.895L515.795 310.734C519.258 250.139 580.204 250.831 580.204 250.831H982.93C1008.21 250.831 1027.6 232.479 1029.33 207.895L1038.33 60.734C1040.41 29.2243 1013.06 0.831055 981.198 0.831055Z" fill="#F0EEEB"/>
</svg>
