<svg width="2001" height="248" viewBox="0 0 2001 248" fill="none" xmlns="http://www.w3.org/2000/svg">
<path d="M498.44 18.3365L497.585 28.1762C490.996 28.1762 486.033 29.4596 482.696 32.0265C479.359 34.5934 476.963 38.1014 475.679 42.6362C474.396 47.0854 473.54 52.1337 473.112 57.6952L468.32 154.295C467.294 172.948 464.983 188.007 461.304 199.301C457.625 210.595 452.148 218.895 444.875 224.028C437.602 229.162 428.189 231.814 416.723 231.814C411.932 231.814 407.311 231.13 402.69 229.847C398.155 228.563 394.305 226.339 391.224 223.173C388.144 220.007 386.604 215.814 386.604 210.681C386.604 206.745 387.716 203.151 390.026 200.071C392.337 196.991 395.503 195.365 399.695 195.108C404.658 194.68 408.252 196.049 410.391 199.13C412.53 202.21 413.643 205.205 413.643 208.199C413.643 209.226 413.557 210.338 413.301 211.622C413.13 212.905 412.787 214.018 412.445 215.044C413.472 216.67 414.926 217.868 416.894 218.638C418.863 219.408 420.659 219.836 422.285 219.836C424.681 219.665 427.334 218.809 430.157 217.44C432.981 216.071 435.634 212.649 437.944 207.173C440.254 201.697 441.709 193.14 442.222 181.418L448.212 63.0856C448.64 57.524 448.982 52.048 449.239 46.6576C449.581 41.2672 449.752 35.7912 450.009 30.2297C446.586 30.2297 443.249 30.3152 439.912 30.4863C436.489 30.6575 433.152 30.8286 429.815 30.9142C426.392 30.9997 423.055 31.1709 419.718 31.342L420.317 18.251H498.44V18.3365Z" fill="#F0EEEB"/>
<path d="M545.329 230.359C537.372 230.359 531.04 228.562 526.248 224.969C521.456 221.375 518.033 216.584 515.98 210.68C513.926 204.69 512.814 198.359 512.814 191.599C512.814 180.476 513.584 169.268 515.21 157.888C516.835 146.508 518.376 136.07 520.001 126.401C521.627 116.732 522.397 109.203 522.397 103.556C522.397 99.7911 521.969 96.5397 521.028 93.7161C520.172 90.8925 517.862 89.5236 514.354 89.5236C511.188 89.5236 507.68 91.7482 503.743 96.1118C499.893 100.476 496.47 107.919 493.475 118.444L485.09 116.647C485.689 113.053 486.887 108.946 488.684 104.24C490.481 99.5344 492.876 94.914 495.957 90.3792C499.037 85.8444 502.802 81.9941 507.252 79.085C511.701 76.0903 516.921 74.6357 522.911 74.6357C530.868 74.6357 536.858 77.117 540.965 82.0796C545.073 87.0422 547.041 94.2296 547.041 103.556C547.041 109.117 546.527 115.962 545.586 124.091C544.559 132.219 543.447 140.775 542.163 149.588C540.88 158.401 539.767 167.043 538.741 175.343C537.714 183.642 537.286 191.001 537.286 197.418C537.286 199.642 537.628 202.209 538.313 205.204C538.997 208.199 540.366 210.765 542.506 212.99C544.559 215.215 547.554 216.241 551.319 216.241C556.881 216.241 562.357 213.675 567.748 208.455C573.139 203.321 578.187 196.305 582.979 187.578C587.771 178.851 592.049 169.182 595.814 158.487C599.579 147.877 602.488 136.925 604.628 125.716C606.681 114.508 607.794 103.813 607.794 93.6306C607.794 90.6359 607.794 87.8979 607.622 85.4165C607.537 82.9352 607.366 80.3684 607.195 77.8015H632.266C632.437 79.1705 632.523 80.454 632.523 81.5663V85.5877C632.523 89.0102 632.351 93.0317 631.924 97.652C631.496 102.358 630.897 108.518 630.127 116.134C629.357 123.749 628.159 133.845 626.533 146.423C625.164 157.973 624.051 166.957 623.367 173.546C622.682 180.134 622.083 185.011 621.741 188.263C621.313 191.514 621.057 194.081 620.971 195.878C620.885 197.674 620.8 199.642 620.8 201.867C620.8 205.461 621.313 208.541 622.426 211.108C623.538 213.675 625.677 214.958 628.843 214.958C632.18 214.958 635.945 212.819 640.053 208.541C644.16 204.263 647.668 196.904 650.663 186.295L659.049 188.091C658.45 191.685 657.166 195.792 655.284 200.498C653.401 205.204 650.834 209.824 647.668 214.359C644.502 218.894 640.566 222.744 636.031 225.653C631.496 228.648 626.191 230.102 620.201 230.102C612.243 230.102 606.425 227.621 602.745 222.659C599.066 217.696 597.269 211.193 597.269 203.322C597.269 197.589 597.782 191.343 598.895 184.583C600.007 177.824 601.205 170.808 602.659 163.449H601.804C595.044 181.503 588.626 195.364 582.466 205.033C576.305 214.701 570.229 221.29 564.24 224.883C558.25 228.477 552.004 230.274 545.5 230.274L545.329 230.359Z" fill="#F0EEEB"/>
<path d="M710.302 230.36C702.344 230.36 694.729 229.076 687.37 226.595C680.011 224.114 674.021 220.52 669.486 215.729C664.866 210.937 662.641 205.204 662.641 198.445C662.641 194.081 663.924 190.573 666.406 187.835C668.887 185.097 671.882 183.814 675.476 183.814C679.412 183.814 682.492 185.097 684.546 187.664C686.599 190.231 687.712 193.14 687.712 196.306C687.712 197.675 687.541 199.215 687.113 200.755C686.685 202.381 686.001 203.921 685.059 205.547C686.685 209.91 689.851 213.333 694.643 215.643C699.435 218.039 704.483 219.236 709.874 219.236C720.57 219.236 728.699 216.755 734.004 211.793C739.395 206.83 742.047 199.899 742.047 190.915C742.047 185.525 740.165 180.819 736.4 176.626C732.635 172.434 727.843 168.498 722.11 164.819C716.377 161.14 710.387 157.546 704.227 153.952C698.494 150.359 692.932 146.68 687.712 142.915C682.407 139.15 678.214 134.958 674.877 130.423C671.625 125.888 670 120.669 670 114.936C670 107.578 672.139 100.904 676.588 94.8289C681.038 88.754 687.027 83.8768 694.814 80.1977C702.601 76.5185 711.5 74.7217 721.682 74.7217C729.212 74.7217 736.314 75.9197 742.989 78.3154C749.663 80.7112 755.139 84.048 759.417 88.4117C763.696 92.7754 765.835 97.9091 765.835 103.898C765.835 108.091 764.637 111.428 762.241 113.909C759.845 116.391 756.85 117.674 753.257 117.674C749.663 117.674 746.839 116.476 744.614 114.08C742.39 111.685 741.363 108.947 741.363 105.695C741.363 104.07 741.534 102.529 741.962 101.075C742.39 99.6203 743.074 98.0803 744.015 96.4546C742.989 93.1177 740.593 90.2085 736.742 87.9839C732.892 85.7592 727.587 84.5614 720.827 84.5614C716.463 84.5614 712.184 85.5881 707.992 87.556C703.799 89.524 700.376 92.262 697.552 95.7701C694.729 99.2781 693.359 103.385 693.359 108.177C693.359 111.941 694.472 115.449 696.782 118.615C699.093 121.781 702.087 124.776 705.852 127.599C709.617 130.423 713.725 133.161 718.088 135.984C725.276 140.177 732.635 144.541 740.165 149.247C747.695 153.952 754.027 159.257 759.075 165.161C764.124 171.15 766.691 178.423 766.691 186.894C766.691 195.365 764.38 202.723 759.674 209.226C754.968 215.728 748.465 220.948 739.994 224.713C731.523 228.477 721.768 230.36 710.644 230.36H710.302Z" fill="#F0EEEB"/>
<path d="M832.579 35.9627L827.188 77.9739H874.593L873.737 89.2682L826.076 89.867C825.306 98.2521 824.365 106.808 823.252 115.621C822.14 124.434 821.199 133.247 820.428 141.974C819.658 150.702 818.974 159.087 818.375 167.13C817.776 175.173 817.519 182.445 817.519 189.034C817.519 192.798 817.776 196.734 818.289 200.841C818.803 204.948 820.001 208.285 821.969 210.938C823.937 213.59 827.103 214.959 831.552 214.959C833.52 214.959 836.002 214.531 838.825 213.761C841.735 212.991 844.901 211.109 848.495 208.114C852.088 205.12 855.768 200.499 859.533 194.082L867.32 199.13C861.587 209.227 855.34 216.927 848.666 222.232C841.992 227.537 833.948 230.104 824.365 230.104C816.578 230.104 810.503 228.478 806.053 225.227C801.604 221.975 798.352 217.612 796.384 212.221C794.416 206.831 793.389 201.098 793.389 194.938C793.389 187.408 793.646 178.167 794.245 167.386C794.844 156.52 795.699 144.541 796.897 131.279C798.095 118.103 799.465 104.327 801.09 89.9527L774.564 90.2094L775.42 77.7172C789.111 77.7172 799.293 74.0381 805.797 66.6797C812.385 59.3213 817.519 48.9682 821.284 35.7061H832.579V35.9627Z" fill="#F0EEEB"/>
<path d="M1091.33 18.3369L1090.14 70.53H1080.3C1080.89 58.808 1079.44 49.9094 1076.02 43.8345C1072.51 37.7595 1067.8 33.7382 1061.73 31.5991C1055.65 29.5456 1048.89 28.6044 1041.28 28.7755L1019.54 29.3745C1012.78 29.5457 1007.82 31.0001 1004.83 33.567C1001.75 36.1339 999.777 39.8986 999.007 44.7756C998.237 49.6527 997.638 55.5566 997.21 62.4871L994.215 117.333H1017.49C1024.68 117.161 1030.41 116.477 1034.77 115.279C1039.14 114.081 1042.48 111.514 1044.79 107.493C1047.1 103.557 1048.38 97.4821 1048.81 89.3537H1058.65L1055.4 154.638H1045.56C1045.98 146.509 1045.21 140.606 1043.33 136.926C1041.45 133.247 1038.37 130.937 1034.09 129.91C1029.81 128.884 1024.08 128.456 1016.98 128.456C1013.21 128.456 1009.36 128.456 1005.51 128.627C1001.66 128.712 997.723 128.969 993.702 129.397L990.45 191.686C990.279 197.077 989.937 201.697 989.594 205.547C989.167 209.398 988.824 212.649 988.396 215.216C991.734 215.045 995.156 214.874 998.493 214.788C1001.83 214.703 1005.25 214.531 1008.59 214.36C1011.93 214.189 1015.35 214.018 1018.69 214.018L1018.09 227.109H943.217L943.816 217.269C951.346 216.842 956.651 215.13 959.646 212.05C962.641 208.97 964.437 204.692 965.036 199.216C965.635 193.74 966.063 187.579 966.234 180.563L973.422 51.7918C973.593 47.856 973.936 44.0057 974.278 40.3265C974.706 36.6473 975.048 33.3104 975.476 30.3157C971.882 30.4868 968.288 30.7435 964.609 30.9146C960.929 31.0857 957.336 31.3425 953.742 31.5136L954.34 18.4226H1091.51L1091.33 18.3369Z" fill="#F0EEEB"/>
<path d="M1153.29 74.7217C1163.98 74.7217 1173.65 77.2885 1182.21 82.3367C1190.77 87.3849 1197.53 94.8289 1202.49 104.583C1207.45 114.337 1209.93 126.145 1209.93 140.091C1209.93 156.006 1207.02 170.808 1201.29 184.669C1195.56 198.445 1187.26 209.568 1176.39 217.868C1165.52 226.253 1152.43 230.36 1136.86 230.36C1123.77 230.36 1112.98 227.365 1104.51 221.376C1096.04 215.386 1089.8 207.343 1085.77 197.247C1081.67 187.151 1079.7 175.856 1079.7 163.535C1079.7 147.45 1082.61 132.647 1088.51 119.129C1094.33 105.61 1102.8 94.8289 1113.84 86.786C1124.88 78.7431 1138.06 74.7217 1153.37 74.7217H1153.29ZM1148.84 85.7593C1140.11 85.5882 1132.58 88.4973 1126.16 94.5722C1119.83 100.647 1114.87 108.861 1111.44 119.129C1107.94 129.482 1106.14 141.033 1105.97 153.696C1105.8 160.455 1106.14 167.642 1107.17 175.172C1108.19 182.701 1109.9 189.803 1112.39 196.306C1114.87 202.894 1118.38 208.199 1122.83 212.392C1127.27 216.584 1132.92 218.723 1139.68 218.98C1147.64 219.151 1154.4 217.012 1159.96 212.563C1165.52 208.113 1169.97 202.295 1173.4 195.108C1176.73 187.921 1179.3 180.306 1181.01 172.177C1182.72 164.049 1183.66 156.348 1183.83 149.247C1184.01 142.316 1183.66 135.129 1182.81 127.77C1181.95 120.412 1180.16 113.567 1177.59 107.235C1175.02 100.904 1171.43 95.7701 1166.89 91.9198C1162.36 88.0695 1156.37 86.0159 1149.01 85.8448L1148.84 85.7593Z" fill="#F0EEEB"/>
<path d="M1243.65 227.023C1243.48 225.654 1243.39 224.37 1243.39 223.258V219.236C1243.39 215.9 1243.48 211.793 1243.65 207.172C1243.82 202.466 1244.33 196.306 1245.02 188.52C1245.7 180.733 1246.73 170.637 1248.18 158.145C1249.55 145.225 1250.67 135.471 1251.44 128.968C1252.21 122.38 1252.8 117.588 1253.23 114.508C1253.66 111.428 1253.83 108.861 1253.83 106.893C1254 102.957 1253.83 99.0215 1253.06 95.2567C1252.38 91.492 1249.9 89.6096 1245.79 89.6096C1242.62 89.6096 1238.94 91.8342 1234.75 96.1979C1230.56 100.562 1226.96 108.006 1224.05 118.53L1215.67 116.733C1216.27 113.139 1217.46 109.032 1219.43 104.326C1221.32 99.6204 1223.88 95.0001 1227.05 90.4652C1230.21 85.9304 1234.06 82.0801 1238.69 79.171C1243.22 76.1763 1248.53 74.7217 1254.52 74.7217C1263.41 74.7217 1269.4 77.8019 1272.4 83.9624C1275.39 90.1229 1276.68 98.3369 1276.25 108.69C1276.08 113.054 1275.48 117.845 1274.62 123.15C1273.77 128.455 1272.83 133.931 1271.8 139.664H1272.66C1278.39 122.38 1284.46 109.032 1290.71 99.706C1296.96 90.3797 1303.37 83.8768 1309.79 80.1977C1316.21 76.5185 1322.63 74.7217 1329.04 74.7217C1335.03 74.7217 1340 76.2619 1343.93 79.3421C1347.87 82.4224 1349.92 86.6149 1349.92 92.0053C1349.92 95.5989 1348.64 98.8504 1346.16 101.845C1343.68 104.84 1340.34 106.294 1336.15 106.294C1332.55 106.294 1329.47 105.182 1326.91 103.043C1324.34 100.818 1322.8 97.738 1322.46 93.8022C1316.89 92.6043 1311.5 94.401 1306.2 99.1925C1300.89 103.984 1295.93 110.743 1291.31 119.642C1286.6 128.455 1282.58 138.38 1279.07 149.332C1275.57 160.284 1272.83 171.407 1270.86 182.701C1268.89 193.996 1267.86 204.605 1267.86 214.274C1267.86 217.269 1267.86 219.493 1268.04 220.948C1268.21 222.402 1268.29 224.456 1268.46 227.023H1243.73H1243.65Z" fill="#F0EEEB"/>
<path d="M1535.86 74.7217C1544.76 74.7217 1552.03 77.5453 1557.51 83.1924C1562.98 88.8395 1566.83 96.2834 1569.14 105.524C1571.45 114.765 1572.14 124.776 1571.2 135.642C1570.34 146.509 1567.94 156.947 1564.18 167.129C1561.01 176.113 1556.91 184.413 1551.77 192.028C1546.72 199.643 1540.91 206.402 1534.32 212.135C1527.73 217.868 1520.63 222.402 1513.01 225.568C1505.39 228.734 1497.35 230.36 1489.05 230.36C1483.92 230.36 1478.78 229.076 1473.73 226.595C1468.69 224.114 1464.66 219.579 1461.84 212.99C1458.93 206.402 1457.99 197.161 1459.02 185.268C1456.02 193.653 1451.74 201.183 1446.01 208.113C1440.36 214.958 1434.12 220.349 1427.36 224.37C1420.6 228.306 1413.84 230.36 1407.08 230.36C1395.53 230.36 1387.48 226.509 1382.95 218.894C1378.41 211.279 1376.1 202.124 1376.1 191.6C1376.1 183.643 1376.53 175.429 1377.3 167.044C1378.07 158.573 1379.01 150.359 1379.95 142.316C1380.98 134.273 1381.84 126.829 1382.61 120.07C1383.38 113.31 1383.8 107.834 1383.8 103.642C1383.8 99.877 1383.38 96.6257 1382.43 93.8022C1381.58 90.9786 1379.27 89.6096 1375.76 89.6096C1372.59 89.6096 1369.09 91.8342 1365.15 96.1979C1361.3 100.562 1357.88 108.006 1354.88 118.53L1346.5 116.733C1347.1 113.139 1348.29 109.032 1350.09 104.326C1351.89 99.6204 1354.28 95.0001 1357.36 90.4652C1360.44 85.9304 1364.21 82.0801 1368.66 79.171C1373.11 76.1763 1378.33 74.7217 1384.32 74.7217C1389.71 74.7217 1394.16 75.8341 1397.75 78.1443C1401.34 80.4544 1404 83.7058 1405.79 87.9839C1407.59 92.262 1408.45 97.4813 1408.45 103.642C1408.45 110.23 1408.02 117.845 1407.25 126.573C1406.48 135.3 1405.54 144.284 1404.43 153.439C1403.31 162.594 1402.37 171.065 1401.6 178.766C1400.83 186.552 1400.4 192.455 1400.4 196.648C1400.4 199.472 1400.75 202.21 1401.43 205.033C1402.11 207.857 1403.4 210.081 1405.28 211.878C1407.16 213.675 1409.82 214.531 1413.15 214.531C1418.12 214.531 1423.16 213.076 1428.21 210.081C1433.26 207.087 1437.97 202.723 1442.33 196.99C1446.7 191.258 1450.55 184.156 1453.97 175.856C1457.31 167.471 1460.04 157.974 1462.01 147.279C1463.98 136.583 1465.01 124.605 1465.01 111.514C1465.01 106.38 1464.84 100.989 1464.58 95.4279C1464.32 89.8663 1463.72 84.1336 1462.95 78.1443H1488.62C1489.05 79.7699 1489.31 81.9945 1489.48 84.8181C1489.65 87.7272 1489.82 89.9518 1489.82 91.492C1489.82 101.417 1489.31 111 1488.37 120.07C1487.34 129.225 1486.23 137.952 1484.94 146.337C1483.66 154.723 1482.55 162.594 1481.52 170.209C1480.49 177.739 1480.07 184.926 1480.07 191.686C1480.07 197.418 1481.09 202.723 1483.06 207.514C1485.03 212.306 1489.39 214.787 1496.15 214.958C1501.89 214.958 1507.62 213.589 1513.18 210.937C1518.74 208.285 1524.05 204.434 1529.1 199.472C1534.15 194.509 1538.68 188.691 1542.7 182.017C1546.64 175.343 1549.98 168.156 1552.54 160.37C1553.74 156.434 1554.85 151.214 1555.79 144.712C1556.82 138.295 1557.16 131.621 1556.82 124.776C1556.56 117.931 1555.37 111.685 1553.23 106.123C1551.17 100.562 1547.58 96.7968 1542.62 94.8289C1541.42 97.3958 1539.71 99.2782 1537.57 100.476C1535.34 101.674 1533.03 102.273 1530.38 102.273C1527.73 102.273 1525.08 101.246 1522.17 99.107C1519.26 97.0535 1517.8 93.8021 1517.8 89.4384C1517.8 87.2138 1518.32 84.9892 1519.43 82.7646C1520.54 80.4544 1522.42 78.5721 1525.08 77.1175C1527.73 75.663 1531.32 74.8928 1535.69 74.8928L1535.86 74.7217Z" fill="#F0EEEB"/>
<path d="M1666.78 74.7217C1672.77 74.7217 1679.27 75.1495 1686.46 76.0907C1693.65 76.9463 1700.41 78.2298 1706.74 79.8555C1705.11 91.7486 1703.57 103.642 1702.12 115.449C1700.66 127.257 1699.21 138.466 1697.92 149.161C1696.64 159.771 1695.61 169.354 1694.76 177.739C1693.99 186.209 1693.56 192.798 1693.56 197.589C1693.56 201.525 1693.82 205.546 1694.42 209.482C1695.02 213.418 1697.5 215.472 1701.86 215.472C1705.28 215.472 1708.96 213.247 1713.07 208.883C1717.18 204.52 1720.69 197.076 1723.68 186.552L1732.07 188.349C1731.47 191.942 1730.27 196.049 1728.3 200.755C1726.42 205.461 1723.85 210.081 1720.69 214.616C1717.52 219.151 1713.67 223.001 1709.05 225.91C1704.43 228.905 1699.21 230.36 1693.22 230.36C1685.26 230.36 1679.61 227.878 1676.19 222.916C1672.85 217.953 1671.14 211.45 1671.14 203.579C1671.14 197.846 1671.66 191.6 1672.77 184.84C1673.88 178.081 1675.08 171.065 1676.53 163.707H1675.68C1670.89 178.423 1666.01 190.231 1660.96 199.044C1655.91 207.857 1650.86 214.616 1645.73 219.151C1640.68 223.686 1635.72 226.766 1631.01 228.221C1626.22 229.675 1621.77 230.445 1617.58 230.445C1606.88 230.445 1597.81 226.509 1590.62 218.552C1583.35 210.595 1579.76 197.247 1579.76 178.594C1579.76 164.648 1581.55 151.471 1585.15 138.979C1588.74 126.487 1594.13 115.364 1601.4 105.781C1608.68 96.1123 1617.75 88.5829 1628.7 83.1069C1639.65 77.6309 1652.32 74.8928 1666.86 74.8928L1666.78 74.7217ZM1657.54 85.417C1648.55 85.417 1640.77 87.8984 1634.09 92.861C1627.42 97.8236 1621.94 104.497 1617.58 112.968C1613.21 121.439 1609.96 130.851 1607.91 141.289C1605.85 151.728 1604.74 162.423 1604.74 173.375C1604.74 186.124 1606.11 196.562 1608.93 204.862C1611.76 213.076 1616.81 217.269 1624.17 217.269C1629.56 217.269 1634.95 214.616 1640.42 209.226C1645.9 203.835 1651.03 196.648 1655.74 187.578C1660.53 178.509 1664.81 168.412 1668.57 157.204C1672.34 145.995 1675.33 134.53 1677.47 122.808C1679.61 111.086 1680.73 99.8771 1680.73 89.0962C1677.73 87.8983 1674.31 87.0427 1670.29 86.4438C1666.35 85.8449 1662.07 85.5881 1657.45 85.5881L1657.54 85.417Z" fill="#F0EEEB"/>
<path d="M1747.04 227.023C1746.87 225.654 1746.78 224.37 1746.78 223.258V219.236C1746.78 215.9 1746.87 211.793 1747.04 207.172C1747.21 202.466 1747.72 196.306 1748.41 188.52C1749.09 180.733 1750.12 170.637 1751.57 158.145C1752.94 145.225 1754.06 135.471 1754.83 128.968C1755.6 122.38 1756.19 117.588 1756.62 114.508C1757.05 111.428 1757.22 108.861 1757.22 106.893C1757.39 102.957 1757.22 99.0215 1756.45 95.2567C1755.77 91.492 1753.29 89.6096 1749.18 89.6096C1746.01 89.6096 1742.33 91.8342 1738.14 96.1979C1733.95 100.562 1730.35 108.006 1727.44 118.53L1719.06 116.733C1719.66 113.139 1720.86 109.032 1722.82 104.326C1724.71 99.6204 1727.27 95.0001 1730.44 90.4652C1733.6 85.9304 1737.46 82.0801 1742.08 79.171C1746.61 76.1763 1751.92 74.7217 1757.91 74.7217C1766.81 74.7217 1772.79 77.8019 1775.79 83.9624C1778.78 90.1229 1780.07 98.3369 1779.64 108.69C1779.47 113.054 1778.87 117.845 1778.01 123.15C1777.16 128.455 1776.22 133.931 1775.19 139.664H1776.05C1781.78 122.38 1787.85 109.032 1794.1 99.706C1800.35 90.3797 1806.77 83.8768 1813.18 80.1977C1819.6 76.5185 1826.02 74.7217 1832.44 74.7217C1838.43 74.7217 1843.39 76.2619 1847.32 79.3421C1851.26 82.4224 1853.31 86.6149 1853.31 92.0053C1853.31 95.5989 1852.03 98.8504 1849.55 101.845C1847.07 104.84 1843.73 106.294 1839.54 106.294C1835.94 106.294 1832.86 105.182 1830.3 103.043C1827.73 100.818 1826.19 97.738 1825.85 93.8022C1820.28 92.6043 1814.89 94.401 1809.59 99.1925C1804.28 103.984 1799.32 110.743 1794.7 119.642C1789.99 128.455 1785.97 138.38 1782.46 149.332C1778.96 160.284 1776.22 171.407 1774.25 182.701C1772.28 193.996 1771.25 204.605 1771.25 214.274C1771.25 217.269 1771.25 219.493 1771.43 220.948C1771.6 222.402 1771.68 224.456 1771.85 227.023H1747.12H1747.04Z" fill="#F0EEEB"/>
<path d="M1886.43 230.361C1877.28 230.361 1869.75 227.794 1863.76 222.746C1857.77 217.698 1853.4 210.853 1850.49 202.211C1847.58 193.569 1846.21 184.072 1846.21 173.719C1846.21 154.211 1849.47 137.098 1855.88 122.296C1862.3 107.494 1872.06 95.8571 1884.98 87.3864C1897.9 78.9157 1913.9 74.7231 1932.98 74.7231C1935.98 74.7231 1938.8 74.8087 1941.62 75.0654C1944.45 75.2365 1947.1 75.5787 1949.67 75.921C1950.44 68.7337 1951.29 61.5465 1952.23 54.2737C1953.09 47.0009 1954.03 40.3272 1954.89 34.3378C1955.74 28.2629 1956.6 23.728 1957.45 20.7333C1953.86 20.9044 1950.26 21.1612 1946.59 21.3323C1942.91 21.5034 1939.31 21.76 1935.72 21.9312L1936.92 10.038C1945.64 10.038 1952.49 9.61019 1957.37 8.84013C1962.24 8.07007 1965.92 7.0434 1968.58 5.84553C1971.14 4.64765 1973.28 3.36411 1974.82 1.99512H1983.47C1981.67 12.6904 1979.87 25.7815 1977.99 41.1827C1976.11 56.5839 1973.8 76.0922 1970.97 99.7929C1969.6 112.542 1968.23 125.205 1966.95 137.783C1965.67 150.446 1964.55 162.082 1963.7 172.778C1962.76 183.473 1962.33 192.457 1962.33 199.644C1962.33 203.409 1962.76 207.003 1963.53 210.339C1964.3 213.762 1966.61 215.388 1970.37 215.388C1973.71 215.388 1977.39 213.163 1981.41 208.799C1985.35 204.436 1988.86 196.992 1991.85 186.468L2000.49 188.264C1999.89 191.858 1998.61 195.965 1996.73 200.671C1994.85 205.377 1992.28 209.997 1989.11 214.532C1985.95 219.067 1982.01 222.917 1977.48 225.826C1972.94 228.821 1967.64 230.275 1961.65 230.275C1953.69 230.275 1947.87 227.794 1944.19 222.832C1940.51 217.869 1938.71 211.366 1938.71 203.494C1938.71 197.762 1939.14 191.687 1939.91 185.441C1940.68 179.195 1941.79 172.35 1943.16 164.991H1942.31C1936.92 183.045 1931.01 196.821 1924.59 206.318C1918.18 215.73 1911.67 222.147 1905.26 225.398C1898.84 228.65 1892.59 230.275 1886.6 230.275L1886.43 230.361ZM1892.68 216.329C1899.01 216.329 1905.34 212.735 1911.59 205.633C1917.83 198.446 1923.57 189.12 1928.7 177.569C1933.84 166.018 1937.86 153.868 1940.6 140.863C1942.22 133.932 1943.51 126.146 1944.62 117.59C1945.73 109.034 1946.84 99.2795 1948.04 88.4131C1944.87 87.2153 1941.54 86.4452 1938.03 86.0174C1934.52 85.5896 1931.1 85.4184 1927.76 85.4184C1919.38 85.4184 1912.1 87.1297 1905.86 90.4667C1899.61 93.8892 1894.3 98.4239 1889.94 104.157C1885.58 109.889 1882.07 116.392 1879.33 123.494C1876.68 130.681 1874.71 138.125 1873.51 145.826C1872.31 153.526 1871.71 161.141 1871.71 168.499C1871.71 182.018 1873.25 193.313 1876.33 202.468C1879.41 211.623 1884.81 216.158 1892.59 216.158L1892.68 216.329Z" fill="#F0EEEB"/>
<path d="M204.342 124.092H135.717C129.471 124.092 124.679 128.627 124.251 134.702L122.026 170.467C122.026 170.467 122.026 170.809 122.026 170.98C121.085 187.408 106.111 185.782 106.111 185.782H37.4858C31.2393 185.782 26.4476 190.317 26.0197 196.392L23.795 232.756C23.2816 240.542 30.0414 247.558 37.9136 247.558H88.0562C104.913 247.558 118.09 235.323 119.117 218.724L120.23 200.585C120.23 200.585 120.23 200.499 120.23 200.413C121.085 186.21 134.69 185.697 135.888 185.697C135.974 185.697 136.06 185.697 136.145 185.697H204.77C211.017 185.697 215.809 181.162 216.236 175.087L218.461 138.723C218.975 130.937 212.215 124.092 204.342 124.092Z" fill="#F0EEEB"/>
<path d="M242.847 0.454102H143.332C137.085 0.454102 132.294 4.98895 131.866 11.0639L129.641 47.4279C128.7 63.8558 113.725 62.2301 113.725 62.2301H14.2105C7.96407 62.2301 3.17219 66.765 2.74435 72.8399L0.519645 109.204C0.00624013 116.99 6.76602 124.006 14.6382 124.006H114.153C120.4 124.006 125.191 119.471 125.619 113.396L127.844 77.0324C128.7 62.059 143.76 62.2301 143.76 62.2301H243.275C249.521 62.2301 254.313 57.6953 254.741 51.6203L256.965 15.2563C257.479 7.47018 250.719 0.454102 242.847 0.454102Z" fill="#F0EEEB"/>
</svg>
