<svg width="2001" height="248" viewBox="0 0 2001 248" fill="none" xmlns="http://www.w3.org/2000/svg">
<path d="M498.413 18.026L497.557 27.8657C490.969 27.8657 486.006 29.1491 482.669 31.716C479.332 34.2829 476.936 37.7909 475.652 42.3257C474.369 46.775 473.513 51.8232 473.085 57.3848L468.293 153.985C467.267 172.637 464.956 187.697 461.277 198.991C457.597 210.285 452.121 218.585 444.848 223.718C437.574 228.852 428.162 231.505 416.696 231.505C411.904 231.505 407.284 230.82 402.663 229.537C398.128 228.253 394.277 226.029 391.197 222.863C388.116 219.697 386.576 215.504 386.576 210.371C386.576 206.435 387.688 202.841 389.999 199.761C392.309 196.681 395.475 195.055 399.668 194.798C404.631 194.37 408.225 195.739 410.364 198.82C412.503 201.9 413.616 204.895 413.616 207.889C413.616 208.916 413.53 210.028 413.273 211.312C413.102 212.595 412.76 213.707 412.418 214.734C413.444 216.36 414.899 217.558 416.867 218.328C418.835 219.098 420.632 219.526 422.258 219.526C424.654 219.355 427.306 218.499 430.13 217.13C432.954 215.761 435.606 212.338 437.917 206.862C440.227 201.386 441.682 192.83 442.195 181.108L448.185 62.7752C448.613 57.2136 448.955 51.7376 449.212 46.3472C449.554 40.9567 449.725 35.4807 449.982 29.9192C446.559 29.9192 443.222 30.0047 439.885 30.1759C436.462 30.347 433.125 30.5181 429.788 30.6037C426.365 30.6892 423.028 30.8604 419.691 31.0315L420.29 17.9404H498.413V18.026Z" fill="#030904"/>
<path d="M545.302 229.963C537.344 229.963 531.012 228.166 526.221 224.573C521.429 220.979 518.006 216.188 515.952 210.284C513.899 204.294 512.786 197.963 512.786 191.203C512.786 180.08 513.557 168.871 515.182 157.492C516.808 146.112 518.348 135.673 519.974 126.005C521.6 116.336 522.37 108.807 522.37 103.159C522.37 99.3947 521.942 96.1433 521.001 93.3197C520.145 90.4961 517.835 89.1272 514.327 89.1272C511.161 89.1272 507.652 91.3518 503.716 95.7155C499.866 100.079 496.443 107.523 493.448 118.047L485.062 116.25C485.661 112.657 486.859 108.55 488.656 103.844C490.453 99.138 492.849 94.5176 495.93 89.9828C499.01 85.448 502.775 81.5976 507.224 78.6885C511.674 75.6938 516.894 74.2393 522.883 74.2393C530.841 74.2393 536.831 76.7206 540.938 81.6832C545.045 86.6459 547.014 93.8331 547.014 103.159C547.014 108.721 546.5 115.566 545.559 123.694C544.532 131.823 543.42 140.379 542.136 149.192C540.853 158.005 539.74 166.647 538.713 174.946C537.687 183.246 537.259 190.604 537.259 197.021C537.259 199.246 537.601 201.813 538.286 204.808C538.97 207.802 540.339 210.369 542.478 212.594C544.532 214.818 547.527 215.845 551.292 215.845C556.854 215.845 562.33 213.278 567.721 208.059C573.112 202.925 578.16 195.909 582.952 187.182C587.744 178.454 592.022 168.786 595.787 158.091C599.552 147.481 602.461 136.529 604.601 125.32C606.654 114.111 607.767 103.416 607.767 93.2342C607.767 90.2395 607.767 87.5015 607.595 85.0202C607.51 82.5388 607.339 79.972 607.168 77.4051H632.239C632.41 78.7741 632.496 80.0575 632.496 81.1698V85.1913C632.496 88.6138 632.324 92.6352 631.897 97.2556C631.469 101.962 630.87 108.122 630.1 115.737C629.33 123.352 628.132 133.449 626.506 146.026C625.137 157.577 624.024 166.561 623.34 173.15C622.655 179.738 622.056 184.615 621.714 187.866C621.286 191.118 621.03 193.685 620.944 195.481C620.858 197.278 620.773 199.246 620.773 201.471C620.773 205.064 621.286 208.145 622.399 210.712C623.511 213.278 625.65 214.562 628.816 214.562C632.153 214.562 635.918 212.423 640.026 208.145C644.133 203.867 647.641 196.508 650.636 185.898L659.022 187.695C658.423 191.289 657.139 195.396 655.257 200.102C653.374 204.808 650.807 209.428 647.641 213.963C644.475 218.498 640.539 222.348 636.004 225.257C631.469 228.252 626.164 229.706 620.174 229.706C612.216 229.706 606.397 227.225 602.718 222.262C599.039 217.3 597.242 210.797 597.242 202.925C597.242 197.193 597.755 190.947 598.868 184.187C599.98 177.428 601.178 170.412 602.633 163.053H601.777C595.017 181.107 588.599 194.968 582.439 204.637C576.278 214.305 570.202 220.893 564.213 224.487C558.223 228.081 551.976 229.878 545.473 229.878L545.302 229.963Z" fill="#030904"/>
<path d="M710.276 229.963C702.318 229.963 694.703 228.68 687.344 226.199C679.985 223.717 673.996 220.124 669.461 215.332C664.84 210.541 662.615 204.808 662.615 198.049C662.615 193.685 663.899 190.177 666.38 187.439C668.862 184.701 671.857 183.417 675.45 183.417C679.387 183.417 682.467 184.701 684.521 187.268C686.574 189.835 687.687 192.744 687.687 195.91C687.687 197.279 687.515 198.819 687.087 200.359C686.66 201.984 685.975 203.525 685.034 205.15C686.66 209.514 689.826 212.937 694.617 215.247C699.409 217.642 704.458 218.84 709.849 218.84C720.544 218.84 728.673 216.359 733.979 211.396C739.369 206.434 742.022 199.503 742.022 190.519C742.022 185.129 740.14 180.423 736.375 176.23C732.61 172.038 727.818 168.102 722.085 164.423C716.352 160.743 710.362 157.15 704.201 153.556C698.468 149.962 692.906 146.283 687.687 142.519C682.381 138.754 678.188 134.561 674.851 130.026C671.6 125.492 669.974 120.272 669.974 114.54C669.974 107.181 672.113 100.507 676.563 94.4324C681.012 88.3574 687.002 83.4804 694.789 79.8012C702.575 76.122 711.474 74.3252 721.657 74.3252C729.187 74.3252 736.289 75.5231 742.963 77.9188C749.637 80.3146 755.114 83.6515 759.392 88.0152C763.671 92.3789 765.81 97.5126 765.81 103.502C765.81 107.695 764.612 111.032 762.216 113.513C759.82 115.994 756.825 117.278 753.231 117.278C749.638 117.278 746.814 116.08 744.589 113.684C742.364 111.288 741.337 108.55 741.337 105.299C741.337 103.673 741.509 102.133 741.936 100.678C742.364 99.2239 743.049 97.6838 743.99 96.0581C742.963 92.7211 740.567 89.812 736.717 87.5874C732.866 85.3628 727.561 84.1649 720.801 84.1649C716.437 84.1649 712.159 85.1916 707.966 87.1596C703.773 89.1275 700.35 91.8655 697.527 95.3736C694.703 98.8816 693.334 102.989 693.334 107.78C693.334 111.545 694.446 115.053 696.757 118.219C699.067 121.385 702.062 124.379 705.827 127.203C709.592 130.026 713.699 132.764 718.063 135.588C725.251 139.781 732.61 144.144 740.14 148.85C747.669 153.556 754.001 158.861 759.05 164.765C764.098 170.754 766.665 178.027 766.665 186.498C766.665 194.968 764.355 202.327 759.649 208.83C754.943 215.332 748.439 220.552 739.968 224.316C731.497 228.081 721.742 229.963 710.619 229.963H710.276Z" fill="#030904"/>
<path d="M832.554 35.5662L827.163 77.5774H874.568L873.712 88.8717L826.051 89.4707C825.281 97.8558 824.339 106.412 823.227 115.225C822.115 124.038 821.174 132.851 820.403 141.578C819.633 150.306 818.949 158.691 818.35 166.734C817.751 174.776 817.494 182.049 817.494 188.638C817.494 192.402 817.751 196.338 818.264 200.445C818.778 204.552 819.976 207.889 821.944 210.542C823.912 213.194 827.078 214.563 831.527 214.563C833.495 214.563 835.977 214.135 838.8 213.365C841.71 212.595 844.876 210.713 848.47 207.718C852.064 204.723 855.743 200.103 859.508 193.686L867.294 198.734C861.561 208.83 855.315 216.531 848.641 221.836C841.966 227.141 833.923 229.708 824.34 229.708C816.553 229.708 810.477 228.082 806.028 224.831C801.578 221.579 798.327 217.215 796.359 211.825C794.391 206.435 793.364 200.702 793.364 194.541C793.364 187.012 793.621 177.771 794.22 166.99C794.818 156.124 795.674 144.145 796.872 130.883C798.07 117.706 799.439 103.931 801.065 89.5562L774.539 89.8129L775.395 77.3208C789.086 77.3208 799.268 73.6416 805.771 66.2832C812.36 58.9248 817.494 48.5718 821.259 35.3096H832.554V35.5662Z" fill="#030904"/>
<path d="M1091.31 18.0264L1090.11 70.2195H1080.27C1080.87 58.4975 1079.42 49.5989 1075.99 43.524C1072.49 37.4491 1067.78 33.4276 1061.7 31.2886C1055.63 29.2351 1048.87 28.2939 1041.25 28.465L1019.52 29.0639C1012.76 29.2351 1007.8 30.6896 1004.8 33.2565C1001.72 35.8234 999.754 39.5881 998.984 44.4652C998.214 49.3423 997.614 55.2461 997.187 62.1766L994.192 117.022H1017.47C1024.65 116.851 1030.39 116.167 1034.75 114.969C1039.11 113.771 1042.45 111.204 1044.76 107.183C1047.07 103.247 1048.36 97.1717 1048.78 89.0433H1058.62L1055.37 154.327H1045.53C1045.96 146.199 1045.19 140.295 1043.31 136.616C1041.43 132.937 1038.34 130.627 1034.07 129.6C1029.79 128.573 1024.05 128.145 1016.95 128.145C1013.19 128.145 1009.34 128.145 1005.49 128.316C1001.64 128.402 997.7 128.659 993.679 129.087L990.427 191.376C990.256 196.767 989.913 201.387 989.571 205.237C989.143 209.087 988.801 212.339 988.373 214.906C991.71 214.735 995.133 214.564 998.47 214.478C1001.81 214.392 1005.23 214.221 1008.57 214.05C1011.9 213.879 1015.33 213.708 1018.66 213.708L1018.07 226.799H943.193L943.792 216.959C951.322 216.531 956.628 214.82 959.622 211.74C962.617 208.66 964.414 204.382 965.013 198.906C965.612 193.43 966.04 187.269 966.211 180.253L973.399 51.4813C973.57 47.5454 973.912 43.6951 974.254 40.0159C974.682 36.3367 975.025 32.9998 975.453 30.0051C971.859 30.1763 968.265 30.4329 964.585 30.6041C960.906 30.7752 957.312 31.0319 953.718 31.203L954.317 18.1119H1091.48L1091.31 18.0264Z" fill="#030904"/>
<path d="M1153.26 74.3252C1163.96 74.3252 1173.63 76.8921 1182.18 81.9403C1190.74 86.9884 1197.5 94.4324 1202.46 104.187C1207.43 113.941 1209.91 125.748 1209.91 139.695C1209.91 155.61 1207 170.412 1201.27 184.273C1195.53 198.049 1187.23 209.172 1176.37 217.471C1165.5 225.856 1152.41 229.963 1136.83 229.963C1123.74 229.963 1112.96 226.969 1104.49 220.979C1096.02 214.99 1089.77 206.947 1085.75 196.851C1081.64 186.754 1079.67 175.46 1079.67 163.139C1079.67 147.053 1082.58 132.251 1088.49 118.732C1094.31 105.213 1102.78 94.4324 1113.82 86.3895C1124.85 78.3466 1138.03 74.3252 1153.35 74.3252H1153.26ZM1148.81 85.3628C1140.08 85.1916 1132.55 88.1008 1126.14 94.1757C1119.81 100.251 1114.84 108.465 1111.42 118.732C1107.91 129.085 1106.11 140.636 1105.94 153.299C1105.77 160.059 1106.11 167.246 1107.14 174.776C1108.17 182.305 1109.88 189.407 1112.36 195.91C1114.84 202.498 1118.35 207.803 1122.8 211.995C1127.25 216.188 1132.9 218.327 1139.66 218.584C1147.61 218.755 1154.37 216.616 1159.94 212.166C1165.5 207.717 1169.95 201.899 1173.37 194.712C1176.71 187.524 1179.27 179.909 1180.99 171.781C1182.7 163.652 1183.64 155.952 1183.81 148.85C1183.98 141.92 1183.64 134.732 1182.78 127.374C1181.93 120.016 1180.13 113.171 1177.56 106.839C1175 100.507 1171.4 95.3736 1166.87 91.5233C1162.33 87.6729 1156.34 85.6194 1148.98 85.4483L1148.81 85.3628Z" fill="#030904"/>
<path d="M1243.62 226.712C1243.45 225.343 1243.37 224.06 1243.37 222.948V218.926C1243.37 215.589 1243.45 211.482 1243.62 206.862C1243.79 202.156 1244.31 195.995 1244.99 188.209C1245.68 180.423 1246.7 170.327 1248.16 157.835C1249.53 144.915 1250.64 135.161 1251.41 128.658C1252.18 122.069 1252.78 117.278 1253.21 114.198C1253.63 111.117 1253.81 108.551 1253.81 106.583C1253.98 102.647 1253.81 98.7109 1253.04 94.9462C1252.35 91.1814 1249.87 89.299 1245.76 89.299C1242.6 89.299 1238.92 91.5237 1234.72 95.8873C1230.53 100.251 1226.94 107.695 1224.03 118.219L1215.64 116.422C1216.24 112.829 1217.44 108.722 1219.41 104.016C1221.29 99.3098 1223.86 94.6895 1227.02 90.1546C1230.19 85.6198 1234.04 81.7695 1238.66 78.8604C1243.2 75.8657 1248.5 74.4111 1254.49 74.4111C1263.39 74.4111 1269.38 77.4914 1272.37 83.6519C1275.37 89.8124 1276.65 98.0264 1276.22 108.379C1276.05 112.743 1275.45 117.535 1274.6 122.84C1273.74 128.144 1272.8 133.62 1271.78 139.353H1272.63C1278.36 122.069 1284.44 108.722 1290.69 99.3954C1296.93 90.0691 1303.35 83.5663 1309.77 79.8871C1316.18 76.2079 1322.6 74.4111 1329.02 74.4111C1335.01 74.4111 1339.97 75.9513 1343.91 79.0315C1347.84 82.1118 1349.9 86.3043 1349.9 91.6948C1349.9 95.2884 1348.61 98.5398 1346.13 101.534C1343.65 104.529 1340.31 105.984 1336.12 105.984C1332.53 105.984 1329.45 104.871 1326.88 102.732C1324.31 100.508 1322.77 97.4275 1322.43 93.4916C1316.87 92.2937 1311.48 94.0905 1306.17 98.882C1300.87 103.674 1295.91 110.433 1291.28 119.331C1286.58 128.144 1282.56 138.07 1279.05 149.022C1275.54 159.974 1272.8 171.097 1270.83 182.391C1268.87 193.685 1267.84 204.295 1267.84 213.964C1267.84 216.958 1267.84 219.183 1268.01 220.638C1268.18 222.092 1268.27 224.146 1268.44 226.712H1243.71H1243.62Z" fill="#030904"/>
<path d="M1535.84 74.3252C1544.74 74.3252 1552.01 77.1487 1557.49 82.7959C1562.96 88.443 1566.81 95.8869 1569.12 105.128C1571.43 114.368 1572.12 124.379 1571.18 135.246C1570.32 146.112 1567.93 156.551 1564.16 166.733C1560.99 175.717 1556.89 184.016 1551.75 191.631C1546.7 199.246 1540.89 206.006 1534.3 211.739C1527.71 217.471 1520.61 222.006 1512.99 225.172C1505.38 228.338 1497.33 229.963 1489.03 229.963C1483.9 229.963 1478.76 228.68 1473.72 226.199C1468.67 223.717 1464.65 219.183 1461.82 212.594C1458.91 206.006 1457.97 196.765 1459 184.872C1456 193.257 1451.72 200.787 1445.99 207.717C1440.34 214.562 1434.1 219.953 1427.34 223.974C1420.58 227.91 1413.82 229.963 1407.06 229.963C1395.51 229.963 1387.46 226.113 1382.93 218.498C1378.39 210.883 1376.08 201.728 1376.08 191.204C1376.08 183.246 1376.51 175.032 1377.28 166.647C1378.05 158.176 1378.99 149.962 1379.93 141.92C1380.96 133.877 1381.82 126.433 1382.59 119.673C1383.36 112.914 1383.78 107.438 1383.78 103.245C1383.78 99.4806 1383.36 96.2292 1382.42 93.4056C1381.56 90.5821 1379.25 89.2131 1375.74 89.2131C1372.57 89.2131 1369.07 91.4377 1365.13 95.8014C1361.28 100.165 1357.86 107.609 1354.86 118.133L1346.48 116.336C1347.08 112.743 1348.27 108.636 1350.07 103.93C1351.87 99.2239 1354.26 94.6035 1357.34 90.0687C1360.42 85.5339 1364.19 81.6836 1368.64 78.7745C1373.09 75.7798 1378.31 74.3252 1384.3 74.3252C1389.69 74.3252 1394.14 75.4375 1397.73 77.7477C1401.33 80.0579 1403.98 83.3093 1405.77 87.5874C1407.57 91.8655 1408.43 97.0848 1408.43 103.245C1408.43 109.834 1408 117.449 1407.23 126.176C1406.46 134.903 1405.52 143.888 1404.41 153.043C1403.29 162.198 1402.35 170.669 1401.58 178.369C1400.81 186.155 1400.38 192.059 1400.38 196.252C1400.38 199.075 1400.73 201.813 1401.41 204.637C1402.1 207.46 1403.38 209.685 1405.26 211.482C1407.14 213.279 1409.8 214.134 1413.13 214.134C1418.1 214.134 1423.15 212.68 1428.19 209.685C1433.24 206.69 1437.95 202.327 1442.31 196.594C1446.68 190.861 1450.53 183.76 1453.95 175.46C1457.29 167.075 1460.02 157.578 1461.99 146.882C1463.96 136.187 1464.99 124.208 1464.99 111.117C1464.99 105.983 1464.82 100.593 1464.56 95.0313C1464.3 89.4697 1463.7 83.7371 1462.93 77.7477H1488.6C1489.03 79.3734 1489.29 81.598 1489.46 84.4216C1489.63 87.3307 1489.8 89.5553 1489.8 91.0954C1489.8 101.021 1489.29 110.604 1488.35 119.673C1487.32 128.829 1486.21 137.556 1484.93 145.941C1483.64 154.326 1482.53 162.198 1481.5 169.813C1480.48 177.342 1480.05 184.53 1480.05 191.289C1480.05 197.022 1481.07 202.327 1483.04 207.118C1485.01 211.91 1489.37 214.391 1496.13 214.562C1501.87 214.562 1507.6 213.193 1513.16 210.541C1518.72 207.888 1524.03 204.038 1529.08 199.075C1534.13 194.113 1538.66 188.295 1542.68 181.621C1546.62 174.947 1549.96 167.759 1552.52 159.973C1553.72 156.037 1554.83 150.818 1555.78 144.315C1556.8 137.898 1557.14 131.224 1556.8 124.379C1556.55 117.534 1555.35 111.288 1553.21 105.727C1551.15 100.165 1547.56 96.4003 1542.6 94.4324C1541.4 96.9993 1539.69 98.8816 1537.55 100.08C1535.32 101.277 1533.01 101.876 1530.36 101.876C1527.71 101.876 1525.06 100.85 1522.15 98.7105C1519.24 96.657 1517.78 93.4056 1517.78 89.0419C1517.78 86.8173 1518.3 84.5927 1519.41 82.3681C1520.52 80.0579 1522.4 78.1755 1525.06 76.7209C1527.71 75.2664 1531.3 74.4963 1535.67 74.4963L1535.84 74.3252Z" fill="#030904"/>
<path d="M1666.75 74.3252C1672.74 74.3252 1679.25 74.753 1686.43 75.6942C1693.62 76.5498 1700.38 77.8332 1706.71 79.4589C1705.09 91.3521 1703.55 103.245 1702.09 115.053C1700.64 126.861 1699.18 138.069 1697.9 148.765C1696.62 159.374 1695.59 168.957 1694.73 177.342C1693.96 185.813 1693.54 192.401 1693.54 197.193C1693.54 201.129 1693.79 205.15 1694.39 209.086C1694.99 213.022 1697.47 215.076 1701.84 215.076C1705.26 215.076 1708.94 212.851 1713.04 208.487C1717.15 204.124 1720.66 196.68 1723.66 186.155L1732.04 187.952C1731.44 191.546 1730.24 195.653 1728.28 200.359C1726.39 205.065 1723.83 209.685 1720.66 214.22C1717.49 218.755 1713.64 222.605 1709.02 225.514C1704.4 228.509 1699.18 229.963 1693.19 229.963C1685.24 229.963 1679.59 227.482 1676.17 222.52C1672.83 217.557 1671.12 211.054 1671.12 203.182C1671.12 197.45 1671.63 191.204 1672.74 184.444C1673.85 177.685 1675.05 170.669 1676.51 163.31H1675.65C1670.86 178.027 1665.98 189.835 1660.93 198.648C1655.89 207.46 1650.84 214.22 1645.7 218.755C1640.65 223.29 1635.69 226.37 1630.99 227.824C1626.19 229.279 1621.74 230.049 1617.55 230.049C1606.86 230.049 1597.79 226.113 1590.6 218.156C1583.32 210.198 1579.73 196.851 1579.73 178.198C1579.73 164.251 1581.53 151.075 1585.12 138.583C1588.72 126.091 1594.11 114.967 1601.38 105.384C1608.65 95.7158 1617.72 88.1863 1628.68 82.7103C1639.63 77.2343 1652.29 74.4963 1666.84 74.4963L1666.75 74.3252ZM1657.51 85.1061C1648.53 85.1061 1640.74 87.5874 1634.07 92.55C1627.39 97.5126 1621.92 104.187 1617.55 112.657C1613.19 121.128 1609.94 130.54 1607.88 140.978C1605.83 151.417 1604.72 162.112 1604.72 173.064C1604.72 185.813 1606.09 196.252 1608.91 204.551C1611.73 212.765 1616.78 216.958 1624.14 216.958C1629.53 216.958 1634.92 214.305 1640.4 208.915C1645.87 203.525 1651.01 196.337 1655.71 187.268C1660.51 178.198 1664.78 168.102 1668.55 156.893C1672.31 145.684 1675.31 134.219 1677.45 122.497C1679.59 110.775 1680.7 99.5661 1680.7 88.7853C1677.71 87.5874 1674.28 86.7317 1670.26 86.1328C1666.32 85.5339 1662.05 85.2772 1657.43 85.2772L1657.51 85.1061Z" fill="#030904"/>
<path d="M1747.02 226.712C1746.85 225.343 1746.76 224.06 1746.76 222.948V218.926C1746.76 215.589 1746.85 211.482 1747.02 206.862C1747.19 202.156 1747.7 195.995 1748.39 188.209C1749.07 180.423 1750.1 170.327 1751.55 157.835C1752.92 144.915 1754.03 135.161 1754.8 128.658C1755.57 122.069 1756.17 117.278 1756.6 114.198C1757.03 111.117 1757.2 108.551 1757.2 106.583C1757.37 102.647 1757.2 98.7109 1756.43 94.9462C1755.75 91.1814 1753.26 89.299 1749.16 89.299C1745.99 89.299 1742.31 91.5237 1738.12 95.8873C1733.93 100.251 1730.33 107.695 1727.42 118.219L1719.04 116.422C1719.64 112.829 1720.83 108.722 1722.8 104.016C1724.68 99.3098 1727.25 94.6895 1730.42 90.1546C1733.58 85.6198 1737.43 81.7695 1742.05 78.8604C1746.59 75.8657 1751.9 74.4111 1757.88 74.4111C1766.78 74.4111 1772.77 77.4914 1775.77 83.6519C1778.76 89.8124 1780.05 98.0264 1779.62 108.379C1779.45 112.743 1778.85 117.535 1777.99 122.84C1777.14 128.144 1776.2 133.62 1775.17 139.353H1776.03C1781.76 122.069 1787.83 108.722 1794.08 99.3954C1800.33 90.0691 1806.74 83.5663 1813.16 79.8871C1819.58 76.2079 1826 74.4111 1832.41 74.4111C1838.4 74.4111 1843.37 75.9513 1847.3 79.0315C1851.24 82.1118 1853.29 86.3043 1853.29 91.6948C1853.29 95.2884 1852.01 98.5398 1849.53 101.534C1847.05 104.529 1843.71 105.984 1839.52 105.984C1835.92 105.984 1832.84 104.871 1830.28 102.732C1827.71 100.508 1826.17 97.4275 1825.83 93.4916C1820.26 92.2937 1814.87 94.0905 1809.57 98.882C1804.26 103.674 1799.3 110.433 1794.68 119.331C1789.97 128.144 1785.95 138.07 1782.44 149.022C1778.93 159.974 1776.2 171.097 1774.23 182.391C1772.26 193.685 1771.23 204.295 1771.23 213.964C1771.23 216.958 1771.23 219.183 1771.4 220.638C1771.58 222.092 1771.66 224.146 1771.83 226.712H1747.1H1747.02Z" fill="#030904"/>
<path d="M1886.41 229.965C1877.25 229.965 1869.72 227.398 1863.73 222.35C1857.74 217.302 1853.38 210.457 1850.47 201.815C1847.56 193.173 1846.19 183.676 1846.19 173.323C1846.19 153.814 1849.44 136.702 1855.86 121.9C1862.28 107.097 1872.03 95.4607 1884.95 86.99C1897.87 78.5193 1913.87 74.3268 1932.96 74.3268C1935.95 74.3268 1938.77 74.4124 1941.6 74.669C1944.42 74.8402 1947.07 75.1824 1949.64 75.5247C1950.41 68.3374 1951.27 61.1502 1952.21 53.8773C1953.06 46.6045 1954 39.9306 1954.86 33.9413C1955.72 27.8663 1956.57 23.3315 1957.43 20.3368C1953.83 20.5079 1950.24 20.7646 1946.56 20.9358C1942.88 21.1069 1939.29 21.3636 1935.69 21.5347L1936.89 9.6415C1945.62 9.6415 1952.46 9.21369 1957.34 8.44363C1962.22 7.67357 1965.9 6.64683 1968.55 5.44895C1971.12 4.25108 1973.26 2.96763 1974.8 1.59863H1983.44C1981.64 12.2939 1979.85 25.385 1977.96 40.7863C1976.08 56.1875 1973.77 75.6958 1970.95 99.3966C1969.58 112.145 1968.21 124.809 1966.93 137.386C1965.64 150.05 1964.53 161.686 1963.67 172.381C1962.73 183.077 1962.3 192.061 1962.3 199.248C1962.3 203.013 1962.73 206.606 1963.5 209.943C1964.27 213.366 1966.58 214.992 1970.35 214.992C1973.69 214.992 1977.36 212.767 1981.39 208.403C1985.32 204.04 1988.83 196.596 1991.83 186.071L2000.47 187.868C1999.87 191.462 1998.59 195.569 1996.7 200.275C1994.82 204.981 1992.25 209.601 1989.09 214.136C1985.92 218.671 1981.99 222.521 1977.45 225.43C1972.92 228.425 1967.61 229.879 1961.62 229.879C1953.66 229.879 1947.84 227.398 1944.16 222.436C1940.49 217.473 1938.69 210.97 1938.69 203.098C1938.69 197.366 1939.12 191.291 1939.89 185.045C1940.66 178.799 1941.77 171.954 1943.14 164.595H1942.28C1936.89 182.649 1930.99 196.424 1924.57 205.922C1918.15 215.334 1911.65 221.751 1905.23 225.002C1898.81 228.254 1892.57 229.879 1886.58 229.879L1886.41 229.965ZM1892.74 215.933C1899.07 215.933 1905.4 212.339 1911.65 205.237C1917.9 198.05 1923.63 188.724 1928.76 177.173C1933.9 165.622 1937.92 153.472 1940.66 140.467C1942.28 133.536 1943.57 125.75 1944.68 117.194C1945.79 108.637 1946.9 98.8832 1948.1 88.0168C1944.93 86.8189 1941.6 86.0489 1938.09 85.621C1934.58 85.1932 1931.16 85.0221 1927.82 85.0221C1919.44 85.0221 1912.16 86.7334 1905.92 90.0703C1899.67 93.4928 1894.36 98.0276 1890 103.76C1885.64 109.493 1882.13 115.996 1879.39 123.097C1876.74 130.285 1874.77 137.729 1873.57 145.429C1872.37 153.13 1871.77 160.745 1871.77 168.103C1871.77 181.622 1873.31 192.916 1876.39 202.072C1879.48 211.227 1884.87 215.762 1892.65 215.762L1892.74 215.933Z" fill="#030904"/>
<path d="M204.316 123.696H135.69C129.444 123.696 124.652 128.23 124.224 134.305L122 170.07C122 170.07 122 170.413 122 170.584C121.058 187.012 106.084 185.386 106.084 185.386H37.4586C31.2121 185.386 26.4204 189.921 25.9925 195.996L23.7677 232.36C23.2543 240.146 30.0142 247.162 37.8864 247.162H88.0291C104.886 247.162 118.063 234.927 119.09 218.328L120.203 200.188C120.203 200.188 120.203 200.103 120.203 200.017C121.058 185.814 134.663 185.301 135.861 185.301C135.947 185.301 136.033 185.301 136.118 185.301H204.743C210.99 185.301 215.782 180.766 216.209 174.691L218.434 138.327C218.948 130.54 212.188 123.696 204.316 123.696Z" fill="#030904"/>
<path d="M242.824 0.0576172H143.309C137.062 0.0576172 132.27 4.59241 131.843 10.6674L129.618 47.0314C128.677 63.4594 113.702 61.8338 113.702 61.8338H14.187C7.94052 61.8338 3.14876 66.3686 2.72092 72.4435L0.496208 108.808C-0.0171984 116.594 6.7426 123.61 14.6148 123.61H114.13C120.377 123.61 125.168 119.075 125.596 113L127.821 76.6361C128.677 61.6627 143.736 61.8338 143.736 61.8338H243.252C249.498 61.8338 254.29 57.299 254.718 51.224L256.942 14.8599C257.456 7.07374 250.696 0.0576172 242.824 0.0576172Z" fill="#030904"/>
</svg>
